<svg width="52" height="52" viewBox="0 0 52 52" fill="none" xmlns="http://www.w3.org/2000/svg">
<rect width="52" height="52" rx="26" fill="url(#paint0_linear_662_7904)"/>
<path d="M35.8891 30.951C41.1567 24.2717 39.7337 17.6468 35.9494 15.3255C32.3739 13.1323 29.2532 14.0162 27.3785 15.424L25.9991 16.4554M35.8891 30.951C34.6247 32.5542 32.975 34.1605 30.88 35.7111C28.8184 37.237 27.7876 38 25.9993 38C24.2111 38 23.1803 37.237 21.1187 35.7111C10.295 27.6998 11.3568 18.2039 16.0493 15.3255C19.6248 13.1323 22.7455 14.0162 24.6202 15.424L25.9991 16.4554M35.8891 30.951L28.5221 22.5931C28.2205 22.2509 27.7157 22.1773 27.329 22.419L24.4141 24.2408C23.3884 24.8818 22.0571 24.7376 21.1926 23.8916C20.0505 22.7742 20.1657 20.9036 21.4363 19.9347L25.9991 16.4554" stroke="white" stroke-opacity="0.87" stroke-width="1.5" stroke-linecap="round" stroke-linejoin="round"/>
<defs>
<linearGradient id="paint0_linear_662_7904" x1="26" y1="0" x2="26" y2="52" gradientUnits="userSpaceOnUse">
<stop stop-color="#CA0E0E"/>
<stop offset="1" stop-color="#420000"/>
</linearGradient>
</defs>
</svg>
