<svg width="40" height="40" viewBox="0 0 40 40" fill="none" xmlns="http://www.w3.org/2000/svg">
<rect width="40" height="40" rx="20" fill="#EDE8E7"/>
<path d="M27.4173 23.7133C31.368 18.7038 30.3007 13.7351 27.4626 11.9942C24.7809 10.3492 22.4404 11.0121 21.0344 12.068L19.9998 12.8416M27.4173 23.7133C26.469 24.9156 25.2317 26.1204 23.6605 27.2834C22.1143 28.4278 21.3412 29 20 29C18.6588 29 17.8857 28.4278 16.3395 27.2834C8.22172 21.2749 9.01807 14.1529 12.5374 11.9942C15.2191 10.3492 17.5596 11.0121 18.9656 12.068L19.9998 12.8416M27.4173 23.7133L21.8921 17.4448C21.6659 17.1882 21.2873 17.133 20.9972 17.3142L18.8111 18.6806C18.0418 19.1614 17.0433 19.0532 16.3949 18.4187C15.5384 17.5806 15.6248 16.1777 16.5777 15.4511L19.9998 12.8416" stroke="#4B180F" stroke-width="1.5" stroke-linecap="round" stroke-linejoin="round"/>
</svg>
