<svg width="32" height="32" viewBox="0 0 32 32" fill="none" xmlns="http://www.w3.org/2000/svg">
<rect width="32" height="32" rx="16" fill="white" fill-opacity="0.28"/>
<path d="M7.66675 15.9997C7.66675 13.0518 7.66675 11.5778 8.54408 10.5938C8.68441 10.4364 8.83906 10.2908 9.00629 10.1587C10.0519 9.33301 11.6179 9.33301 14.7501 9.33301H17.2501C20.3822 9.33301 21.9483 9.33301 22.9939 10.1587C23.1611 10.2908 23.3158 10.4364 23.4561 10.5938C24.3334 11.5778 24.3334 13.0518 24.3334 15.9997C24.3334 18.9476 24.3334 20.4215 23.4561 21.4056C23.3158 21.563 23.1611 21.7085 22.9939 21.8406C21.9483 22.6663 20.3822 22.6663 17.2501 22.6663H14.7501C11.6179 22.6663 10.0519 22.6663 9.00629 21.8406C8.83906 21.7085 8.68441 21.563 8.54408 21.4056C7.66675 20.4215 7.66675 18.9476 7.66675 15.9997Z" stroke="#4B180F" stroke-width="1.5" stroke-linecap="round" stroke-linejoin="round"/>
<path d="M18.1258 15.9993C18.1258 17.1499 17.1931 18.0827 16.0425 18.0827C14.8919 18.0827 13.9592 17.1499 13.9592 15.9993C13.9592 14.8488 14.8919 13.916 16.0425 13.916C17.1931 13.916 18.1258 14.8488 18.1258 15.9993Z" stroke="#4B180F" stroke-width="1.5"/>
<path d="M10.1667 16L11.0001 16" stroke="#4B180F" stroke-width="1.5" stroke-linecap="round"/>
<path d="M21 16L21.8333 16" stroke="#4B180F" stroke-width="1.5" stroke-linecap="round"/>
</svg>
