<svg width="62" height="62" viewBox="0 0 62 62" fill="none" xmlns="http://www.w3.org/2000/svg">
<g filter="url(#filter0_d_323_12315)">
<path d="M9 29C9 17.402 18.402 8 30 8C41.598 8 51 17.402 51 29C51 40.598 41.598 50 30 50C18.402 50 9 40.598 9 29Z" fill="url(#paint0_linear_323_12315)" shape-rendering="crispEdges"/>
<path d="M30 9.25C40.9076 9.25 49.75 18.0924 49.75 29C49.75 39.9076 40.9076 48.75 30 48.75C19.0924 48.75 10.25 39.9076 10.25 29C10.25 18.0924 19.0924 9.25 30 9.25Z" stroke="url(#paint1_linear_323_12315)" stroke-width="2.5" shape-rendering="crispEdges"/>
<path d="M22.8974 31.0772C22.738 32.1227 23.451 32.8484 24.324 33.2101C27.6711 34.5966 32.3289 34.5966 35.676 33.2101C36.549 32.8484 37.2621 32.1227 37.1026 31.0772C37.0045 30.4347 36.5199 29.8996 36.1608 29.3772C35.6905 28.6844 35.6437 27.9289 35.6437 27.125C35.6437 24.0184 33.1169 21.5 30 21.5C26.8831 21.5 24.3563 24.0184 24.3563 27.125C24.3563 27.9289 24.3095 28.6844 23.8392 29.3772C23.4801 29.8996 22.9955 30.4347 22.8974 31.0772Z" stroke="white" stroke-opacity="0.87" stroke-width="1.5" stroke-linecap="round" stroke-linejoin="round"/>
<path d="M27 34.25C27.3439 35.5439 28.5566 36.5 30 36.5C31.4434 36.5 32.6561 35.5439 33 34.25" stroke="white" stroke-opacity="0.87" stroke-width="1.5" stroke-linecap="round" stroke-linejoin="round"/>
</g>
<defs>
<filter id="filter0_d_323_12315" x="0" y="0" width="62" height="62" filterUnits="userSpaceOnUse" color-interpolation-filters="sRGB">
<feFlood flood-opacity="0" result="BackgroundImageFix"/>
<feColorMatrix in="SourceAlpha" type="matrix" values="0 0 0 0 0 0 0 0 0 0 0 0 0 0 0 0 0 0 127 0" result="hardAlpha"/>
<feOffset dx="1" dy="2"/>
<feGaussianBlur stdDeviation="5"/>
<feComposite in2="hardAlpha" operator="out"/>
<feColorMatrix type="matrix" values="0 0 0 0 0 0 0 0 0 0 0 0 0 0 0 0 0 0 0.4 0"/>
<feBlend mode="normal" in2="BackgroundImageFix" result="effect1_dropShadow_323_12315"/>
<feBlend mode="normal" in="SourceGraphic" in2="effect1_dropShadow_323_12315" result="shape"/>
</filter>
<linearGradient id="paint0_linear_323_12315" x1="30" y1="8" x2="47.9036" y2="42.403" gradientUnits="userSpaceOnUse">
<stop stop-color="#762618"/>
<stop offset="1" stop-color="#46170F"/>
</linearGradient>
<linearGradient id="paint1_linear_323_12315" x1="29.2222" y1="8" x2="47.7901" y2="41.6973" gradientUnits="userSpaceOnUse">
<stop stop-color="#B67064"/>
<stop offset="1" stop-color="#1D0602"/>
</linearGradient>
</defs>
</svg>
