<svg width="32" height="32" viewBox="0 0 32 32" fill="none" xmlns="http://www.w3.org/2000/svg">
<rect x="0.769531" y="0.769531" width="30.4615" height="30.4615" rx="15.2308" fill="url(#paint0_linear_323_11900)"/>
<g clip-path="url(#clip0_323_11900)">
<path d="M9.71013 21.4424H21.1735C21.3635 21.4424 21.5218 21.2831 21.5218 21.092C21.5218 20.6169 21.1366 20.2317 20.6615 20.2317H10.2221C9.74695 20.2317 9.3618 20.6169 9.3618 21.092C9.3618 21.315 9.52013 21.4424 9.71013 21.4424ZM22.0918 11.2468C21.5535 11.2468 21.1418 11.661 21.1418 12.2026C21.1418 12.6078 21.1861 13.1192 20.9037 13.4098L20.1599 14.1748C19.3711 14.986 18.0233 14.807 17.4736 13.818L16.3712 11.8345C16.1025 11.3512 16.3601 10.6846 16.3601 10.1316C16.3601 9.58998 15.9485 9.17578 15.4101 9.17578C14.8718 9.17578 14.4601 9.58998 14.4601 10.1316C14.4601 10.6846 14.7177 11.3512 14.4491 11.8345L13.2786 13.9404C12.7629 14.8684 11.4981 15.0364 10.758 14.2752L9.9438 13.4377C9.66044 13.1463 9.7418 12.6091 9.7418 12.2026C9.7418 11.661 9.33013 11.2468 8.7918 11.2468C8.25346 11.2468 7.8418 11.661 7.8418 12.2026C7.8418 12.7443 8.25346 13.1585 8.7918 13.1585C8.82754 13.1585 8.85727 13.186 8.86005 13.2216L9.10846 16.4083C9.25145 18.2427 10.7816 19.6582 12.6215 19.6582H18.2621C20.102 19.6582 21.6321 18.2427 21.7751 16.4083L22.0235 13.2216C22.0263 13.186 22.0918 13.1585 22.0918 13.1585C22.6301 13.1585 23.0418 12.7443 23.0418 12.2026C23.0418 11.6928 22.6301 11.2468 22.0918 11.2468Z" fill="black" fill-opacity="0.87"/>
</g>
<defs>
<linearGradient id="paint0_linear_323_11900" x1="4.83107" y1="6.1003" x2="26.2811" y2="27.8041" gradientUnits="userSpaceOnUse">
<stop stop-color="#856220"/>
<stop offset="0.275" stop-color="#F4E683"/>
<stop offset="0.5" stop-color="#BF923D"/>
<stop offset="1" stop-color="#F1EA82"/>
</linearGradient>
<clipPath id="clip0_323_11900">
<rect width="16" height="16" fill="white" transform="translate(7.30859 7.30859)"/>
</clipPath>
</defs>
</svg>
