<svg width="32" height="32" viewBox="0 0 32 32" fill="none" xmlns="http://www.w3.org/2000/svg">
<rect width="32" height="32" rx="16" fill="url(#paint0_linear_1_9864)"/>
<path d="M10.4015 22.1339H21.8649C22.0549 22.1339 22.2132 21.9745 22.2132 21.7834C22.2132 21.3083 21.8281 20.9231 21.3529 20.9231H10.9135C10.4384 20.9231 10.0532 21.3083 10.0532 21.7834C10.0532 22.0064 10.2115 22.1339 10.4015 22.1339ZM22.7832 11.9382C22.2449 11.9382 21.8332 12.3524 21.8332 12.894C21.8332 13.2992 21.8775 13.8106 21.5951 14.1012L20.8513 14.8662C20.0625 15.6774 18.7147 15.4984 18.165 14.5094L17.0626 12.5259C16.7939 12.0426 17.0515 11.376 17.0515 10.823C17.0515 10.2814 16.6399 9.86719 16.1015 9.86719C15.5632 9.86719 15.1515 10.2814 15.1515 10.823C15.1515 11.376 15.4091 12.0426 15.1405 12.5259L13.9701 14.6318C13.4543 15.5598 12.1895 15.7278 11.4494 14.9666L10.6352 14.1291C10.3518 13.8377 10.4332 13.3005 10.4332 12.894C10.4332 12.3524 10.0215 11.9382 9.4832 11.9382C8.94487 11.9382 8.5332 12.3524 8.5332 12.894C8.5332 13.4357 8.94487 13.8499 9.4832 13.8499C9.51895 13.8499 9.54868 13.8774 9.55146 13.913L9.79987 17.0997C9.94286 18.9341 11.473 20.3496 13.3129 20.3496H18.9535C20.7934 20.3496 22.3235 18.9341 22.4665 17.0997L22.7149 13.913C22.7177 13.8774 22.7832 13.8499 22.7832 13.8499C23.3215 13.8499 23.7332 13.4357 23.7332 12.894C23.7332 12.3842 23.3215 11.9382 22.7832 11.9382Z" fill="black" fill-opacity="0.87"/>
<defs>
<linearGradient id="paint0_linear_1_9864" x1="4.26667" y1="5.6" x2="26.8" y2="28.4" gradientUnits="userSpaceOnUse">
<stop stop-color="#856220"/>
<stop offset="0.275" stop-color="#F4E683"/>
<stop offset="0.5" stop-color="#BF923D"/>
<stop offset="1" stop-color="#F1EA82"/>
</linearGradient>
</defs>
</svg>
