<svg width="22" height="20" viewBox="0 0 22 20" fill="none" xmlns="http://www.w3.org/2000/svg">
<path d="M18.4173 13.7133C22.368 8.70378 21.3007 3.73508 18.4626 1.99415C15.7809 0.349229 13.4404 1.01211 12.0344 2.06801L10.9998 2.84158M18.4173 13.7133C17.469 14.9156 16.2317 16.1204 14.6605 17.2834C13.1143 18.4278 12.3412 19 11 19C9.65881 19 8.88572 18.4278 7.33953 17.2834C-0.77828 11.2749 0.0180686 4.15293 3.53744 1.99415C6.21909 0.349229 8.55962 1.01211 9.96565 2.06801L10.9998 2.84158M18.4173 13.7133L12.8921 7.44479C12.6659 7.1882 12.2873 7.13296 11.9972 7.31424L9.81109 8.68057C9.04179 9.16138 8.04334 9.05317 7.3949 8.41871C6.53837 7.58062 6.62479 6.17769 7.5777 5.45106L10.9998 2.84158" stroke="black" stroke-opacity="0.87" stroke-width="1.5" stroke-linecap="round" stroke-linejoin="round"/>
</svg>
